<svg width="30" height="30" viewBox="0 0 30 30" fill="none" xmlns="http://www.w3.org/2000/svg">
<g clip-path="url(#clip0_4888_4390)">
<path d="M28.75 0H22.5C20.4325 0 18.75 1.6825 18.75 3.75V8.75H2.5V1.25C2.5 0.55875 1.94 0 1.25 0C0.56 0 0 0.55875 0 1.25V28.75C0 29.4412 0.56 30 1.25 30C1.94 30 2.5 29.4412 2.5 28.75V26.25H27.5V28.75C27.5 29.4412 28.06 30 28.75 30C29.44 30 30 29.4412 30 28.75V1.25C30 0.55875 29.44 0 28.75 0ZM21.25 3.75C21.25 3.06 21.8113 2.5 22.5 2.5H27.5V8.75H21.25V3.75ZM2.5 18.75C2.5 18.06 3.06125 17.5 3.75 17.5H7.5C8.18875 17.5 8.75 18.06 8.75 18.75V23.75H2.5V18.75ZM17.5 23.75H11.25V18.75C11.25 18.06 11.8112 17.5 12.5 17.5H16.25C16.9387 17.5 17.5 18.06 17.5 18.75V23.75ZM20 23.75V18.75C20 16.6825 18.3175 15 16.25 15H12.5C11.54 15 10.6637 15.3625 10 15.9575C9.33625 15.3625 8.46 15 7.5 15H3.75C3.31125 15 2.89125 15.0763 2.5 15.215V11.25H27.5V23.75H20Z" fill="#023F7E"/>
</g>
<defs>
<clipPath id="clip0_4888_4390">
<rect width="30" height="30" fill="white"/>
</clipPath>
</defs>
</svg>
