<svg width="30" height="30" viewBox="0 0 30 30" fill="none" xmlns="http://www.w3.org/2000/svg">
<g clip-path="url(#clip0_4888_4400)">
<path d="M27.5 12.4738V20H20V27.5H2.5V3.75C2.5 3.41848 2.6317 3.10054 2.86612 2.86612C3.10054 2.6317 3.41848 2.5 3.75 2.5H20.185L21.6987 0.8075C21.968 0.510066 22.2657 0.239617 22.5875 0L3.75 0C2.75544 0 1.80161 0.395088 1.09835 1.09835C0.395088 1.80161 0 2.75544 0 3.75L0 30H23.0175L30 23.0175V9.97375L27.5 12.4738ZM22.5 26.9825V22.5H26.9825L22.5 26.9825Z" fill="#023F7E"/>
<path d="M15.9144 14.7747L25.4281 4.14096C25.5352 4.02134 25.6656 3.92482 25.8113 3.85729C25.957 3.78975 26.1149 3.75263 26.2754 3.74819C26.4359 3.74374 26.5956 3.77206 26.7448 3.83143C26.894 3.89079 27.0296 3.97995 27.1431 4.09346C27.2528 4.20295 27.3399 4.333 27.3993 4.47618C27.4587 4.61935 27.4892 4.77283 27.4892 4.92783C27.4892 5.08284 27.4587 5.23632 27.3993 5.37949C27.3399 5.52267 27.2528 5.65272 27.1431 5.76221L17.1031 15.8035C17.689 16.4476 18.1328 17.2078 18.4056 18.0347L28.9056 7.53471C29.5947 6.84411 29.9816 5.90839 29.9816 4.93283C29.9816 3.95728 29.5947 3.02156 28.9056 2.33096C28.5519 1.97681 28.1296 1.69858 27.6646 1.51328C27.1996 1.32799 26.7017 1.23955 26.2014 1.25335C25.701 1.26716 25.2087 1.38293 24.7547 1.59359C24.3006 1.80424 23.8943 2.10534 23.5606 2.47846L13.3906 13.8447C14.2897 13.9666 15.1512 14.284 15.9144 14.7747Z" fill="#023F7E"/>
<path d="M12.5 16.25C7.5 16.25 6.25 23.75 6.25 23.75H12.5C13.4946 23.75 14.4484 23.3549 15.1517 22.6517C15.8549 21.9484 16.25 20.9946 16.25 20C16.25 19.0054 15.8549 18.0516 15.1517 17.3483C14.4484 16.6451 13.4946 16.25 12.5 16.25Z" fill="#023F7E"/>
</g>
<defs>
<clipPath id="clip0_4888_4400">
<rect width="30" height="30" fill="white"/>
</clipPath>
</defs>
</svg>
