<svg width="30" height="30" viewBox="0 0 30 30" fill="none" xmlns="http://www.w3.org/2000/svg">
<g clip-path="url(#clip0_4888_4405)">
<path d="M30 7.39625L25.875 9.7825L27.5325 14.8187L26.595 15.4725L22.5187 12.3213L18.425 15.4862L17.5238 14.8075L19.1537 9.7125L15 7.4025V6.25H20.4375L21.91 0.625H23.1225L24.5925 6.25H30V7.39625ZM6.25 6.25V8.75H12.5V6.25H6.25ZM15 11.25H6.25V13.75H15V11.25ZM6.25 18.75H15V16.25H6.25V18.75ZM23.75 22.5H27.5V26.25C27.5 28.3175 25.8175 30 23.75 30H4.375C1.9625 30 0 28.0375 0 25.625V3.75C0 1.6825 1.6825 0 3.75 0H17.6625C16.5187 0.63375 15.5175 1.48625 14.705 2.5H3.75C3.06125 2.5 2.5 3.06 2.5 3.75V25.625C2.5 26.6588 3.34125 27.5 4.375 27.5C5.40875 27.5 6.25 26.6588 6.25 25.625V22.5H21.25V18.6663C21.6588 18.72 22.0763 18.75 22.5 18.75C22.9237 18.75 23.34 18.715 23.75 18.6637V22.5ZM25 25H8.75V25.625C8.75 26.295 8.5975 26.9312 8.3275 27.5H23.75C24.4387 27.5 25 26.94 25 26.25V25Z" fill="#023F7E"/>
</g>
<defs>
<clipPath id="clip0_4888_4405">
<rect width="30" height="30" fill="white"/>
</clipPath>
</defs>
</svg>
