<svg width="30" height="30" viewBox="0 0 30 30" fill="none" xmlns="http://www.w3.org/2000/svg">
<g clip-path="url(#clip0_4888_4395)">
<path d="M18.1265 15.6247C18.1265 17.3509 16.7277 18.7497 15.0015 18.7497C13.2752 18.7497 11.8765 17.3509 11.8765 15.6247C11.8765 13.8984 13.2752 12.4997 15.0015 12.4997C16.7277 12.4997 18.1265 13.8984 18.1265 15.6247ZM27.1027 14.2834L23.8477 18.9347C23.3802 19.6022 22.6152 20.0009 21.8002 20.0009H8.20396C7.38896 20.0009 6.62271 19.6034 6.15646 18.9347L2.90146 14.2834C2.50646 13.7184 1.72646 13.5809 1.16021 13.9759C0.593963 14.3709 0.457713 15.1509 0.852713 15.7172L4.10771 20.3684C5.04271 21.7034 6.57396 22.5009 8.20396 22.5009H10.0015V28.7509C10.0015 29.4422 10.5615 30.0009 11.2515 30.0009C11.9415 30.0009 12.5015 29.4422 12.5015 28.7509V22.5009H17.5015V28.7509C17.5015 29.4422 18.0615 30.0009 18.7515 30.0009C19.4415 30.0009 20.0015 29.4422 20.0015 28.7509V22.5009H21.799C23.429 22.5009 24.9602 21.7034 25.8952 20.3684L29.1502 15.7172C29.5452 15.1522 29.409 14.3722 28.8427 13.9759C28.2777 13.5822 27.5002 13.7184 27.1027 14.2834ZM11.2515 6.24967H13.7515V7.43592C13.7515 8.08092 14.5302 8.40342 14.9865 7.94717L17.1952 5.73842C17.604 5.32967 17.604 4.66842 17.1952 4.25967L14.9865 2.05092C14.5302 1.59467 13.7515 1.91842 13.7515 2.56217V3.74842H11.2515C10.5615 3.74842 10.0015 4.30717 10.0015 4.99842C10.0015 5.68967 10.5615 6.24967 11.2515 6.24967ZM0.115213 3.36092C0.470213 1.78342 1.76646 0.480924 3.33771 0.118424C4.70271 -0.192826 6.03771 0.104674 7.10021 0.950924C8.14896 1.78842 8.75021 3.03592 8.75021 4.37467C8.75021 5.67467 8.17146 6.89967 7.16146 7.73217C6.58271 8.20967 6.25021 8.85967 6.25021 9.51967V10.0009C6.25021 10.6922 5.69021 11.2509 5.00021 11.2509H3.75021C3.06021 11.2509 2.50021 10.6922 2.50021 10.0009V9.51842C2.50021 8.85842 2.17021 8.20967 1.59646 7.73842C0.292713 6.66467 -0.259787 5.02842 0.115213 3.36092ZM3.18396 5.80467C3.67521 6.20717 4.07771 6.68342 4.37771 7.20717C4.67771 6.68467 5.08021 6.20717 5.57146 5.80217C6.00396 5.44592 6.25146 4.92592 6.25146 4.37342C6.25146 3.79967 5.99271 3.26342 5.54271 2.90467C5.20396 2.63467 4.81021 2.49717 4.38146 2.49717C4.22396 2.49717 4.06146 2.51717 3.89646 2.55467C3.25396 2.70217 2.70146 3.25967 2.55521 3.90967C2.38896 4.64842 2.61771 5.33842 3.18396 5.80467ZM29.2227 8.47842C28.9902 8.87467 28.5727 9.09467 28.144 9.09467C27.929 9.09467 27.7102 9.03967 27.5115 8.92217L27.3402 8.82092C26.8565 9.26967 26.2727 9.59967 25.6252 9.79467V9.99842C25.6252 10.6897 25.0652 11.2484 24.3752 11.2484C23.6852 11.2484 23.1252 10.6897 23.1252 9.99842V9.79467C22.479 9.59967 21.894 9.26967 21.4102 8.82092L21.239 8.92217C21.0402 9.03967 20.8227 9.09467 20.6065 9.09467C20.1777 9.09467 19.7602 8.87467 19.5277 8.47842C19.1777 7.88342 19.3765 7.11717 19.9715 6.76717L20.139 6.66842C20.0565 6.33217 19.999 5.98592 19.999 5.62467C19.999 5.26342 20.0552 4.91717 20.139 4.58092L19.9715 4.48217C19.3765 4.13217 19.1777 3.36467 19.5277 2.77092C19.8777 2.17342 20.644 1.97592 21.239 2.32717L21.4102 2.42842C21.894 1.97967 22.4777 1.64967 23.1252 1.45467V1.25092C23.1252 0.559674 23.6852 0.000923894 24.3752 0.000923894C25.0652 0.000923894 25.6252 0.559674 25.6252 1.25092V1.45467C26.2715 1.64967 26.8565 1.97967 27.3402 2.42842L27.5115 2.32717C28.1065 1.97842 28.8727 2.17467 29.2227 2.77092C29.5727 3.36592 29.374 4.13217 28.779 4.48217L28.6115 4.58092C28.694 4.91717 28.7515 5.26342 28.7515 5.62467C28.7515 5.98592 28.6952 6.33217 28.6115 6.66842L28.779 6.76717C29.374 7.11717 29.5727 7.88467 29.2227 8.47842ZM26.2515 5.62467C26.2515 4.59092 25.4102 3.74967 24.3765 3.74967C23.3427 3.74967 22.5015 4.59092 22.5015 5.62467C22.5015 6.65842 23.3427 7.49967 24.3765 7.49967C25.4102 7.49967 26.2515 6.65842 26.2515 5.62467Z" fill="#023F7E"/>
</g>
<defs>
<clipPath id="clip0_4888_4395">
<rect width="30" height="30" fill="white"/>
</clipPath>
</defs>
</svg>
