<svg width="30" height="30" viewBox="0 0 30 30" fill="none" xmlns="http://www.w3.org/2000/svg">
<g clip-path="url(#clip0_4888_4410)">
<path d="M28.7725 10.9812C28.0287 10.3025 27.0575 9.96625 26.0613 10.0037C25.0563 10.0513 24.1313 10.4875 23.455 11.23L19.4338 15.6475C18.745 14.5112 17.495 13.7487 16.0725 13.7487H11.2513V11.6963C12.1425 11.465 12.9412 11.0075 13.5675 10.3687L15.335 11.3875L16.5825 9.2225L14.8012 8.19625C14.9187 7.7725 15.0013 7.335 15.0013 6.87375C15.0013 6.4125 14.9187 5.975 14.8012 5.55125L16.5825 4.525L15.335 2.36L13.5675 3.37875C12.9412 2.74 12.1425 2.28375 11.2513 2.05125V0H8.75125V2.0525C7.86 2.28375 7.06125 2.74125 6.435 3.38L4.6675 2.36125L3.42 4.52625L5.20125 5.5525C5.08375 5.97625 5.00125 6.41375 5.00125 6.875C5.00125 7.33625 5.08375 7.77375 5.20125 8.1975L3.42 9.22375L4.6675 11.3888L6.435 10.37C7.06125 11.0087 7.86 11.465 8.75125 11.6975V13.75H3.75C1.6825 13.75 0 15.4325 0 17.5V26.25C0 28.3175 1.6825 30 3.75 30H16.81L29.0438 16.27C30.4113 14.7362 30.2887 12.365 28.7712 10.9825L28.7725 10.9812ZM7.5 6.875C7.5 5.49625 8.62125 4.375 10 4.375C11.3787 4.375 12.5 5.49625 12.5 6.875C12.5 8.25375 11.3787 9.375 10 9.375C8.62125 9.375 7.5 8.25375 7.5 6.875ZM27.1775 14.6063L15.69 27.5H3.75C3.06 27.5 2.5 26.94 2.5 26.25V17.5C2.5 16.81 3.06 16.25 3.75 16.25H16.0713C16.8588 16.25 17.5 16.8912 17.5 17.6787C17.5 18.3837 16.9738 18.9925 16.275 19.0912L9.82375 20.0125L10.1775 22.4875L16.6287 21.5662C18.0975 21.3563 19.29 20.3313 19.7712 18.9925L25.3037 12.9125C25.5312 12.6637 25.8425 12.5175 26.1788 12.5013C26.515 12.4763 26.8387 12.6025 27.0887 12.83C27.5987 13.2937 27.6375 14.0913 27.1775 14.6063Z" fill="#023F7E"/>
</g>
<defs>
<clipPath id="clip0_4888_4410">
<rect width="30" height="30" fill="white"/>
</clipPath>
</defs>
</svg>
