<svg width="30" height="30" viewBox="0 0 30 30" fill="none" xmlns="http://www.w3.org/2000/svg">
<g clip-path="url(#clip0_4888_4385)">
<path d="M5.1 25H17.4025C16.7763 21.02 13.2925 18.2125 11.2675 16.8912C9.2225 18.2325 5.7325 21.0537 5.1 25ZM11.2738 19.9775C12.11 20.6475 13.0013 21.4988 13.7025 22.5H8.83625C9.56 21.4862 10.47 20.6275 11.2738 19.9775ZM22.5012 7.49875C18.365 7.49875 15.0013 10.8625 15.0013 14.9987C15.0013 19.135 18.365 22.4988 22.5012 22.4988C26.6375 22.4988 30.0012 19.135 30.0012 14.9987C30.0012 10.8625 26.6375 7.49875 22.5012 7.49875ZM22.5012 19.9987C19.7437 19.9987 17.5013 17.7563 17.5013 14.9987C17.5013 12.2412 19.7437 9.99875 22.5012 9.99875C25.2587 9.99875 27.5012 12.2412 27.5012 14.9987C27.5012 17.7563 25.2587 19.9987 22.5012 19.9987ZM23.7512 14.47L25.5912 16.2575L23.85 18.0513L21.2512 15.5275V11.2487H23.7512V14.47ZM22.415 24.9938C22.455 25.4075 22.5012 25.8175 22.5012 26.2488V29.9988H0V26.2488C0 21.2425 2.8 17.4837 5.5525 14.9987C2.8 12.515 0 8.75625 0 3.75C0 1.6825 1.6825 0 3.75 0H18.7513C19.7525 0 20.6938 0.39 21.4013 1.0975C22.1087 1.805 22.5 2.7475 22.5 3.75C22.5 4.18125 22.4538 4.59125 22.4137 5.00375C21.5338 5.01125 20.685 5.13875 19.8738 5.36C19.9538 4.84 20 4.305 20 3.75C20 3.41625 19.87 3.10125 19.6337 2.865C19.3988 2.63 19.085 2.5 18.7513 2.5H3.75C3.06 2.5 2.5 3.06125 2.5 3.75C2.5 8.46625 5.635 11.9375 8.265 14.02L9.5025 15L8.26375 15.98C5.63375 18.0613 2.5 21.5325 2.5 26.2488V27.4988H20V26.2488C20 25.6938 19.9538 25.1575 19.8725 24.6375C20.6838 24.8587 21.5338 24.9863 22.4125 24.9938H22.415Z" fill="#023F7E"/>
</g>
<defs>
<clipPath id="clip0_4888_4385">
<rect width="30" height="30" fill="white"/>
</clipPath>
</defs>
</svg>
